# xmcd
#
# Track frame offsets:
#	150
#	10302
#	18440
#	30957
#	43310
#	54247
#	64015
#	76227
#	88745
#	99862
#	110272
#	120240
#	130307
#	141950
#
# Disc length: 2022 seconds
#
# Revision: 1
# Processed by: cddbd v1.4PL0 Copyright (c) Steve Scherf et al.
# Submitted via: audiograbber 1.81.02
#
DISCID=a707e40e
DTITLE=Johnny Cash - Gold
DYEAR=1900
DGENRE=
TTITLE0=Ballad of a teenage Queen
TTITLE1=Guess things happen that way
TTITLE2=Folson prison blues
TTITLE3=I walk the line
TTITLE4=The ways of a woman in love
TTITLE5=Rock island line
TTITLE6=You're the nearest thing to heaven
TTITLE7=Next in line
TTITLE8=I just thought you'd like to know
TTITLE9=Straight a's in love
TTITLE10=Hey porter
TTITLE11=Get rhythm
TTITLE12=Big river
TTITLE13=Born to lose
EXTD=
EXTT0=
EXTT1=
EXTT2=
EXTT3=
EXTT4=
EXTT5=
EXTT6=
EXTT7=
EXTT8=
EXTT9=
EXTT10=
EXTT11=
EXTT12=
EXTT13=
PLAYORDER=
